HIERARCHY
ROOT Spine
{
    OFFSET 0.0 0.0 -0.0
    CHANNELS 6 Xposition Yposition Zposition Zrotation Xrotation Yrotation
    JOINT ShoulderCenter
    {
        OFFSET 0.0 28.292375564575195 0.0
        CHANNELS 3 Zrotation Xrotation Yrotation
        JOINT LeftShoulder
        {
            OFFSET 18.461917877197266 0.0 0.0
            CHANNELS 3 Zrotation Xrotation Yrotation
            JOINT LeftElbow
            {
                OFFSET 29.939178466796875 0.0 0.0
                CHANNELS 3 Zrotation Xrotation Yrotation
                JOINT LeftHand
                {
                    OFFSET 31.770957946777344 0.0 0.0
                    CHANNELS 3 Zrotation Xrotation Yrotation
                    End Site
                    {
                        OFFSET 12.708383560180664 0.0 0.0
                    }
                }
            }
        }
        JOINT RightShoulder
        {
            OFFSET -18.461917877197266 0.0 0.0
            CHANNELS 3 Zrotation Xrotation Yrotation
            JOINT RightElbow
            {
                OFFSET -29.939178466796875 0.0 0.0
                CHANNELS 3 Zrotation Xrotation Yrotation
                JOINT RightHand
                {
                    OFFSET -31.770957946777344 0.0 0.0
                    CHANNELS 3 Zrotation Xrotation Yrotation
                    End Site
                    {
                        OFFSET -12.708383560180664 0.0 0.0
                    }
                }
            }
        }
        End Site
        {
            OFFSET 0.0 11.316949844360352 0.0
        }
    }
    JOINT LeftHip
    {
        OFFSET 15.729678606367278 -15.729678606367278 0.0
        CHANNELS 3 Zrotation Xrotation Yrotation
        JOINT LeftKnee
        {
            OFFSET 0.0 -39.31306457519531 0.0
            CHANNELS 3 Zrotation Xrotation Yrotation
            JOINT LeftFoot
            {
                OFFSET 0.0 -43.867122650146484 0.0
                CHANNELS 3 Zrotation Xrotation Yrotation
                End Site
                {
                    OFFSET 0.0 0.0 17.54684829711914
                }
            }
        }
    }
    JOINT RightHip
    {
        OFFSET -15.729678606367278 -15.729678606367278 0.0
        CHANNELS 3 Zrotation Xrotation Yrotation
        JOINT RightKnee
        {
            OFFSET 0.0 -39.31306457519531 0.0
            CHANNELS 3 Zrotation Xrotation Yrotation
            JOINT RightFoot
            {
                OFFSET 0.0 -43.867122650146484 0.0
                CHANNELS 3 Zrotation Xrotation Yrotation
                End Site
                {
                    OFFSET 0.0 0.0 17.54684829711914
                }
            }
        }
    }
}
MOTION
Frames: 6
Frame Time: 0.03333333333333333
-1.899999976158142 8.5 47.400001525878906 -6.0090057070238485 1.798803236099228 -3.4266626539244256 2.05269318750427e-07 -2.0980837140125993e-07 0.2516372860461616 93.44682690700107 25.593075041840432 176.79202823269694 -2.0940875905621653e-06 -3.789327991603798e-06 24.311971640055607 -7.951386703658792e-16 -1.3793457181406746e-32 1.987846675914698e-15 -85.54769976026817 36.70046236088703 -178.14948747642615 -8.036793018401655e-07 9.263238394099456e-07 -24.33450991516079 -2.3854160110976376e-15 0.0 0.0 8.141807170546558 13.565480865776411 -45.91246720969159 11.493517695869711 -13.124558465062034 37.619239580633966 9.93923337957349e-17 2.438101318197872e-34 2.8109394401606274e-16 3.5732198828953727 5.410481782460406 21.66258595035542 -4.934516945935145 -11.365275620679192 -20.01229574237077 1.077613842297402e-35 6.212020862233431e-18 -1.987846675914698e-16
-1.899999976158142 8.5 47.29999923706055 -5.430812005636795 1.6063062574282057 -3.4619991453664185 2.6831630201599547e-07 -8.238617933487754e-08 -0.5177644297138219 92.88403378261796 24.038516983706817 176.43568288085325 -2.6177422440812765e-06 1.0631940216744027e-07 25.44751269011627 -8.67198112367787e-15 3.155706598014584e-15 5.963540027744098e-16 -85.82093209150962 35.178039374093856 -178.59318089865863 -2.551528019344146e-07 1.060125862436837e-06 -24.161149525109217 5.565970692561154e-15 -7.95138670365879e-16 3.1805546814635168e-15 7.731045372434895 13.436724372911291 -45.99268285378587 11.473702261419223 -13.10702934376227 38.8960066011363 -9.939233379573489e-17 3.9756933518293955e-16 -2.2052674060928675e-16 3.0011662895812954 5.292536111525383 20.82002203221789 -4.554203222515115 -11.213056988374358 -19.606740763349123 0.0 0.0 0.0
-2.0 8.5 47.20000076293945 -5.030675228394229 1.6073252448539421 -3.4808403035396402 -3.347586927290751e-07 2.6407148234332052e-08 -1.4318056996894601 92.13589519615459 22.87721821524799 176.48389122210875 3.3443320588557433e-06 2.040545441796731e-06 26.686985329978825 1.1927080055488188e-15 1.987846675914698e-16 1.987846675914698e-16 -86.10982759699029 32.860017510410216 -179.02708274803214 -2.3718968762345305e-06 2.179634552580414e-06 -23.95902795781235 0.0 -7.951386703658792e-16 0.0 7.506155641708658 13.124733811777064 -45.519637843906374 11.429884394292515 -13.278376217463794 40.16473947507629 3.125080142662466e-34 3.975693351829396e-16 -9.007430250238476e-17 2.7638471812676144 4.98524424851639 19.815502257957252 -4.40790301962085 -10.970918969856708 -19.026220843904113 3.975693351829397e-16 -1.7241821476758432e-34 -4.969616689786746e-17
-2.0999999046325684 8.5 47.20000076293945 -4.8304199424409235 1.0050428357257473 -3.7056570432067675 -1.0790665055019496e-08 -4.365061011477212e-09 -1.8942231020976146 92.26243084571178 20.376345204974392 175.2644597416929 -6.356632653020472e-07 -7.252926747382735e-07 28.70311175775618 4.174478019420866e-15 -7.951386703658792e-16 2.896626008095417e-32 -86.47693352361895 31.82373822778625 -178.7356953511396 8.573764292132894e-07 -5.8193440809690634e-06 -23.907393056844857 7.951386703658792e-15 3.1805546814635168e-15 -1.5902773407317588e-15 7.248875124086481 13.402769795374422 -44.026686380725 11.065889116927071 -13.306186874559147 39.93401499280493 1.987846675914698e-16 -1.1853752265271422e-33 -6.833222948456774e-16 2.656967486332303 5.454951370239729 18.878911976631713 -4.356266255393336 -11.129614745154926 -19.383457699690126 -3.975693351829396e-16 -8.075627120903461e-16 -2.8017959899732453e-33
-2.0999999046325684 8.5 47.20000076293945 -4.429559725487318 0.6034054872835476 -3.409926935670556 3.9108470055398584e-07 -2.321765461324383e-08 -2.0775421393297218 91.94499719488614 17.950965551224062 174.93375043970175 5.098568168867764e-07 -1.5882105307166032e-06 29.685210492058857 1.7890620083232284e-15 3.1805546814635176e-15 -3.975693351829397e-15 -87.08204886921439 30.40848912864996 -178.34624461370578 -3.6747984920618245e-06 2.201684704919859e-06 -24.196349620008792 -2.782985346280577e-15 7.951386703658792e-16 -2.3854160110976376e-15 6.759715220944891 13.583035678788734 -43.546552366120174 10.952432342319508 -13.14543989617126 39.75250046459755 0.0 0.0 4.0378135604517306e-17 2.2632983848534454 5.817658709923009 18.560157559612044 -4.321733961146315 -11.007719977539844 -19.16380629843375 5.17254644302753e-34 -7.951386703658791e-16 7.454425034680116e-17
-2.0999999046325684 8.5 47.20000076293945 -4.228963786823353 0.40238779860930973 -3.1357488424402176 -6.199780270920121e-07 2.6140181152050457e-08 -2.057026644307087 91.86231614929181 16.801893385801186 174.96308597231103 -3.895360576557625e-06 -3.6253480141915185e-06 30.004479555169127 3.578124016646457e-15 -7.951386703658794e-16 -3.1805546814635168e-15 -87.44245511752901 28.696360890154782 -177.97941408056298 3.951068467046426e-06 6.360740468438679e-06 -24.723403520034985 -7.951386703658794e-16 -3.975693351829397e-15 -2.3854160110976384e-15 6.770198011728542 13.708787315536396 -44.46751816155942 11.137909058899263 -13.090707803098478 40.54151921028324 -1.987846675914698e-16 -1.3470173028717525e-33 7.765026077791789e-16 2.073144938595697 6.134402260074541 18.88108940431755 -4.354110309859114 -11.130216361375274 -19.196801080591175 3.975693351829396e-16 1.2424041724466862e-17 2.4848083448933725e-17
